<svg width="146" height="165" viewBox="0 0 146 165" fill="none" xmlns="http://www.w3.org/2000/svg">
<path fill-rule="evenodd" clip-rule="evenodd" d="M3.28996 0C3.02417 0.00573898 2.76592 0.0894597 2.54735 0.240804C2.32878 0.392149 2.15952 0.604428 2.06062 0.851207L0.0971196 5.75938C-0.0291312 6.07475 -0.0324027 6.42608 0.0879528 6.74375L3.68725 16.2321C3.80528 16.5423 4.03299 16.7984 4.32724 16.952C4.62148 17.1055 4.96183 17.1458 5.28379 17.0652C5.60575 16.9846 5.88697 16.7887 6.07416 16.5147C6.26136 16.2406 6.34154 15.9074 6.29951 15.5782L5.13307 6.54188L5.56269 6.39888L6.8973 13.0723C6.94051 13.2889 7.03595 13.4917 7.17533 13.6629L13.7609 21.7453L12.6395 23.5399C12.5401 23.6988 12.4748 23.8765 12.4476 24.0618C12.4203 24.2472 12.4318 24.4362 12.4812 24.6168C12.5307 24.7975 12.617 24.9661 12.7349 25.1118C12.8527 25.2574 12.9994 25.377 13.1658 25.4631L22.6549 30.3706C22.829 30.4607 23.0205 30.512 23.2163 30.5209L30.0673 30.8328L37.2964 35.2325C37.4716 35.3393 37.6687 35.4049 37.873 35.4244L43.9502 36.003L45.9203 40.5073C46.0224 40.741 46.1883 40.941 46.3989 41.0846L53.5969 45.9919C53.8078 46.1359 54.0552 46.2173 54.3105 46.2269L61.8838 46.5071L62.1493 54.2095L54.9652 62.6433C54.8139 62.8209 54.7111 63.0346 54.6665 63.2637C54.622 63.4927 54.6373 63.7293 54.711 63.9507L55.8225 67.2859L54.1801 70.0227C53.9992 70.3238 53.9422 70.6833 54.0211 71.0256L55.0029 75.2788C55.058 75.5175 55.1768 75.7369 55.3467 75.9135C55.5165 76.0901 55.731 76.2174 55.9674 76.2819L58.9901 77.1067L64.7542 88.331L64.4622 91.5383C64.4379 91.8075 64.4945 92.0778 64.6248 92.3146C64.7552 92.5513 64.9533 92.7437 65.1937 92.867L76.5391 98.6933L76.2392 109.198L72.6618 130.663L71.0346 137.822C71.0297 137.845 71.0254 137.867 71.0217 137.89L69.7123 145.416C69.7048 145.458 69.6993 145.501 69.6958 145.544L68.7141 158.305C68.694 158.564 68.7491 158.824 68.8727 159.053C68.9963 159.282 69.1832 159.471 69.4111 159.596L78.8996 164.831C79.155 164.972 79.449 165.027 79.7379 164.988C80.0269 164.948 80.2955 164.817 80.5037 164.612C80.712 164.408 80.8489 164.142 80.8941 163.854C80.9392 163.566 80.8903 163.271 80.7545 163.013L77.9649 157.712L82.1156 153.838C82.3295 153.638 82.4732 153.375 82.5251 153.087C82.577 152.799 82.5344 152.502 82.4036 152.24L81.069 149.572L83.3873 148.518C83.5731 148.434 83.7374 148.309 83.8681 148.152C83.9988 147.996 84.0924 147.811 84.142 147.613L85.521 142.096H88.7158C89.0495 142.096 89.3715 141.973 89.6202 141.751C89.8689 141.528 90.0267 141.222 90.0636 140.89L90.2503 139.208L96.1798 139.477C96.379 139.487 96.5778 139.452 96.7619 139.375C96.946 139.298 97.1109 139.182 97.245 139.035L100.517 135.436C100.701 135.234 100.819 134.98 100.857 134.709C100.894 134.438 100.849 134.162 100.726 133.917L99.7758 132.017L103.095 132.89C103.308 132.946 103.532 132.949 103.747 132.899C103.962 132.849 104.161 132.748 104.328 132.603L114.144 124.096C114.328 123.937 114.465 123.731 114.542 123.501L116.998 116.133L124.251 111.902L128.983 110.64C129.238 110.572 129.468 110.43 129.644 110.233L135.207 104.017C135.359 103.847 135.466 103.64 135.517 103.418L138.363 91.0877L142.937 87.1237C143.108 86.9755 143.239 86.7867 143.318 86.5748L145.282 81.3398C145.339 81.1875 145.368 81.0264 145.368 80.8638V74.974C145.368 74.7753 145.324 74.579 145.24 74.3991C145.155 74.2191 145.033 74.0599 144.88 73.9327L142.917 72.2967C142.888 72.2722 142.858 72.2491 142.826 72.2271L136.282 67.6467C136.129 67.5391 135.955 67.4645 135.771 67.4276L131.027 66.479L124.961 63.6059C124.927 63.5897 124.892 63.5751 124.856 63.5619L120.182 61.809L119.11 59.1297L116.832 52.2966C116.767 52.1015 116.659 51.9238 116.515 51.7769C116.371 51.63 116.196 51.5178 116.002 51.4486L111.421 49.812C111.238 49.7465 111.042 49.7214 110.849 49.7381C110.655 49.7549 110.467 49.8132 110.297 49.9091C110.128 50.005 109.981 50.1362 109.867 50.2939C109.753 50.4516 109.674 50.632 109.636 50.8229L108.797 55.0174L102.842 57.4543L101.975 57.0207L100.824 52.703C100.781 52.5417 100.708 52.3899 100.61 52.2549L98.5014 49.3553L101.353 44.2222C101.448 44.0514 101.505 43.862 101.52 43.6671C101.535 43.4722 101.507 43.2765 101.44 43.0932C101.372 42.9099 101.265 42.7434 101.127 42.6052C100.989 42.467 100.822 42.3603 100.639 42.2924L91.8046 39.0201C91.7412 38.997 91.6762 38.9785 91.61 38.9651L83.7573 37.3292C83.691 37.3157 83.6237 37.3071 83.5561 37.3036L77.6669 36.976C77.4195 36.9623 77.173 37.0167 76.9542 37.1333C76.7355 37.2499 76.5529 37.4241 76.4263 37.6372L76.2251 37.154C76.103 36.8613 75.8821 36.6206 75.6009 36.4739C75.3196 36.3272 74.9959 36.2836 74.6859 36.3509L67.1603 37.9868C66.8987 38.0439 66.6598 38.1771 66.4737 38.3698C66.2877 38.5624 66.1629 38.8058 66.115 39.0692L65.7165 41.2604L60.2371 39.9557C60.1239 39.9287 60.0078 39.9163 59.8915 39.919L56.4624 39.9997L53.7534 37.7017V29.8227C53.7534 29.4773 53.6216 29.145 53.3849 28.8936C53.1482 28.6421 52.8245 28.4904 52.4798 28.4695L42.8615 27.8863L42.6855 25.6023L44.9701 24.0797C45.1103 23.9861 45.2317 23.867 45.3282 23.7288L47.6188 20.4567C47.753 20.2648 47.8352 20.0413 47.8574 19.8082C47.8796 19.575 47.841 19.3401 47.7454 19.1262C47.6498 18.9124 47.5004 18.7271 47.3119 18.5881C47.1233 18.4492 46.902 18.3614 46.6695 18.3334L38.4898 17.3519C38.1509 17.3113 37.8092 17.4 37.5329 17.6003C37.2565 17.8006 37.0659 18.0977 36.9989 18.4324L36.2052 22.3997L31.2078 23.1132L28.6313 18.4752L29.842 12.4199C29.8928 12.1657 29.8697 11.9022 29.7754 11.6608C29.681 11.4193 29.5195 11.21 29.3098 11.0575L26.0395 8.67969L24.2197 3.82523C24.1512 3.6426 24.0441 3.47684 23.9058 3.33937C23.7674 3.20189 23.6011 3.09594 23.418 3.02863C23.235 2.96131 23.0395 2.93431 22.8451 2.9494C22.6506 2.9645 22.4617 3.02137 22.2913 3.11613L20.241 4.25547L16.7106 0.725098C16.5384 0.552839 16.323 0.430164 16.087 0.369934C15.8509 0.309704 15.6031 0.31413 15.3694 0.382802L10.1839 1.90797L3.691 0.0531515C3.56039 0.0160154 3.42493 -0.00131653 3.28917 0.00179036L3.28996 0ZM4.12341 2.99472L5.7804 3.46805L3.65008 4.17849L4.12341 2.99472ZM15.3629 3.21001L19.0476 6.89458C19.2559 7.10277 19.5263 7.23743 19.818 7.27828C20.1097 7.31913 20.4067 7.26401 20.6642 7.12106L22.2338 6.24927L23.6445 10.0107C23.7376 10.2595 23.9018 10.4753 24.1165 10.6316L27.0134 12.7381L25.8748 18.4307C25.8117 18.7461 25.8629 19.0737 26.0191 19.3549L29.2913 25.244C29.4247 25.484 29.6277 25.6779 29.8735 25.8001C30.1194 25.9222 30.3965 25.9668 30.6683 25.928L37.5392 24.9462C37.8167 24.9064 38.0751 24.7816 38.2788 24.589C38.4825 24.3963 38.6215 24.1453 38.6765 23.8704L39.4127 20.1916L44.1003 20.7542L43.2543 21.9631L40.5215 23.7849C40.3212 23.9185 40.16 24.103 40.0546 24.3195C39.9492 24.5361 39.9033 24.7768 39.9218 25.0169L40.2488 29.2702C40.2738 29.5968 40.4161 29.9033 40.6495 30.1331C40.8829 30.3628 41.1916 30.5004 41.5185 30.5202L51.0427 31.0968V38.3278C51.0427 38.5246 51.0855 38.719 51.1682 38.8976C51.2508 39.0761 51.3713 39.2345 51.5214 39.3618L55.1021 42.3991C55.3554 42.6141 55.6789 42.7286 56.011 42.7209L59.7805 42.6328L66.4806 44.2283C66.6598 44.271 66.8459 44.2766 67.0274 44.2451C67.2089 44.2135 67.382 44.1453 67.5363 44.0445C67.6906 43.9438 67.8227 43.8128 67.9246 43.6593C68.0265 43.5058 68.096 43.3332 68.129 43.1519L68.6215 40.443L74.1578 39.2395L75.3594 42.1225C75.467 42.3805 75.6517 42.5989 75.8883 42.7479C76.1249 42.8968 76.4017 42.969 76.6809 42.9545C76.9601 42.9401 77.2279 42.8397 77.4479 42.6671C77.6678 42.4945 77.829 42.2582 77.9094 41.9904L78.584 39.7423L83.3047 40.0045L90.9588 41.5992L98.2163 44.2869L95.7119 48.7951C95.5865 49.021 95.5282 49.278 95.5439 49.5359C95.5596 49.7939 95.6487 50.042 95.8007 50.251L98.2693 53.6463L99.5132 58.3101C99.5627 58.4956 99.651 58.6685 99.7723 58.8173C99.8936 58.9661 100.045 59.0875 100.217 59.1734L102.18 60.1551C102.353 60.2415 102.542 60.29 102.736 60.2973C102.929 60.3045 103.121 60.2705 103.3 60.1973L110.498 57.2521C110.705 57.1674 110.888 57.0327 111.03 56.8601C111.173 56.6875 111.27 56.4824 111.314 56.263L111.988 52.894L114.47 53.7804L116.551 60.0251C116.559 60.0504 116.568 60.0755 116.578 60.1003L117.887 63.3727C117.957 63.5478 118.063 63.7064 118.198 63.8383C118.333 63.9701 118.494 64.0724 118.67 64.1386L123.852 66.0816L130.018 69.0022C130.118 69.0498 130.223 69.0849 130.332 69.1067L134.961 70.0329L141.226 74.418L142.657 75.6109V80.6196L140.902 85.3014L136.254 89.3296C136.037 89.5175 135.885 89.7695 135.821 90.0492L132.954 102.47L127.894 108.125L123.378 109.33C123.261 109.361 123.148 109.408 123.044 109.469L115.191 114.049C114.906 114.216 114.692 114.48 114.588 114.792L112.088 122.292L103.093 130.087L97.5689 128.633C97.3168 128.567 97.051 128.575 96.8032 128.656C96.5555 128.737 96.3363 128.888 96.172 129.09C96.0076 129.292 95.905 129.537 95.8765 129.797C95.848 130.056 95.8948 130.318 96.0112 130.551L97.886 134.301L95.6676 136.741L89.1059 136.443C88.7621 136.428 88.4253 136.543 88.1637 136.767C87.9021 136.99 87.7353 137.305 87.6971 137.647L87.5038 139.386H84.4632C84.161 139.387 83.8675 139.488 83.6293 139.674C83.3911 139.86 83.2218 140.12 83.1485 140.413L81.6709 146.322L78.6674 147.688C78.5016 147.763 78.3526 147.872 78.2295 148.006C78.1063 148.14 78.0115 148.298 77.9507 148.47C77.8899 148.641 77.8643 148.824 77.8756 149.006C77.8868 149.187 77.9345 149.365 78.016 149.528L79.526 152.548L75.3587 156.437C75.1413 156.64 74.9967 156.909 74.947 157.202C74.8974 157.496 74.9455 157.797 75.084 158.06L76.2485 160.273L71.4854 157.645L72.3949 145.819L73.6872 138.391L75.315 131.227C75.3207 131.201 75.3256 131.175 75.3297 131.15L78.929 109.555C78.9393 109.494 78.9454 109.432 78.9474 109.37L79.2744 97.9185C79.2817 97.6628 79.2165 97.4103 79.0863 97.1901C78.9562 96.9698 78.7664 96.7908 78.5389 96.6739L67.2465 90.8755L67.4907 88.187C67.514 87.9309 67.4639 87.6736 67.3465 87.4449L61.1296 75.339C61.0436 75.1714 60.9237 75.0236 60.7775 74.905C60.6313 74.7863 60.4619 74.6994 60.2802 74.6498L57.4634 73.8819L56.7869 70.951L58.469 68.1483C58.5695 67.9806 58.6326 67.7932 58.6538 67.5988C58.6751 67.4044 58.6541 67.2078 58.5922 67.0223L57.5257 63.8215L64.5555 55.5696C64.7748 55.3119 64.8898 54.9815 64.8779 54.6434L64.5509 45.155C64.539 44.8124 64.3979 44.487 64.1558 44.2443C63.9137 44.0016 63.5887 43.8596 63.2461 43.8469L54.8023 43.5343L48.2491 39.066L46.1155 34.1881C46.0185 33.9666 45.8641 33.775 45.6682 33.6332C45.4723 33.4915 45.2421 33.4048 45.0013 33.3819L38.4409 32.7571L31.1814 28.3382C30.9868 28.2199 30.7655 28.1524 30.5379 28.1422L23.6366 27.8283L15.7184 23.7325L16.575 22.3622C16.7249 22.1222 16.796 21.8414 16.7783 21.559C16.7606 21.2766 16.6551 21.0068 16.4763 20.7874L9.49024 12.2139L7.92063 4.36368C7.89847 4.25612 7.86331 4.15169 7.81595 4.0526L9.81784 4.62451C10.0643 4.69593 10.326 4.69593 10.5725 4.62451L15.3628 3.21583L15.3629 3.21001Z" fill="black"/>
<path fill-rule="evenodd" clip-rule="evenodd" d="M60.4239 13.0205C60.3789 13.0183 60.3338 13.0183 60.2888 13.0205L54.485 13.5588C54.4081 13.5657 54.3319 13.5793 54.2573 13.5992L49.7722 14.8093C49.4304 14.9029 49.1388 15.1267 48.9599 15.4326C48.781 15.7385 48.7289 16.1024 48.815 16.4462C48.901 16.79 49.1182 17.0865 49.4201 17.2721C49.722 17.4577 50.0846 17.5178 50.4302 17.4394L54.0686 16.6012L61.4221 19.9754L65.6523 23.2437C65.8442 23.3917 66.0722 23.4856 66.3126 23.5155C66.553 23.5455 66.797 23.5106 67.0194 23.4143L71.372 21.5308C71.6021 21.4312 71.8001 21.2697 71.9439 21.0643C72.0877 20.8589 72.1718 20.6177 72.1868 20.3674C72.2017 20.1171 72.147 19.8676 72.0286 19.6466C71.9102 19.4255 71.7329 19.2416 71.5163 19.1153L66.9002 16.4256C66.8923 16.4194 66.8843 16.4133 66.8763 16.4072L61.0726 13.1793C60.874 13.069 60.6509 13.0104 60.4238 13.0088L60.4239 13.0205ZM60.1214 15.7652L65.5465 18.7825L67.833 20.1152L66.6772 20.6149L62.9574 17.742C62.8759 17.679 62.7875 17.6254 62.6939 17.5824L58.9668 15.8725L60.1214 15.7652Z" fill="black"/>
<path fill-rule="evenodd" clip-rule="evenodd" d="M74.4266 19.8802C74.2312 19.8757 74.037 19.9136 73.8576 19.9911C73.6781 20.0687 73.5175 20.1842 73.3868 20.3296C73.2562 20.4751 73.1585 20.6471 73.1005 20.8338C73.0426 21.0206 73.0257 21.2176 73.051 21.4115L73.1801 22.4011L71.2351 23.2127C70.9467 23.333 70.7087 23.5493 70.5614 23.825C70.4141 24.1006 70.3666 24.4187 70.4268 24.7254L70.5592 25.398C70.6198 25.7063 70.7855 25.9839 71.0281 26.1834C71.2707 26.383 71.575 26.4923 71.8891 26.4924H76.4437L78.5277 27.5548C78.7022 27.6437 78.8938 27.6938 79.0895 27.7016C79.2852 27.7093 79.4802 27.6746 79.6612 27.5998C79.8422 27.5251 80.0048 27.4119 80.138 27.2683C80.2711 27.1246 80.3715 26.9539 80.4323 26.7678L80.7573 25.7733L84.3017 26.0832C84.5387 26.1039 84.777 26.0619 84.9927 25.9614C85.2083 25.8609 85.3938 25.7054 85.5303 25.5106C85.5303 25.5106 85.7712 25.2116 85.9467 24.7102C86.0346 24.4596 86.1944 24.1105 85.9772 23.4901C85.8686 23.1799 85.5969 22.8351 85.2814 22.6549C84.9659 22.4752 84.6632 22.4355 84.4195 22.4355C84.7515 22.4355 84.6601 22.4722 84.5658 22.4355C84.4715 22.397 84.3076 22.3183 84.1183 22.2178C83.7396 22.0163 83.2495 21.7248 82.7777 21.4313C81.8341 20.8442 80.9605 20.251 80.9605 20.251C80.7446 20.1041 80.4908 20.0227 80.2297 20.0166L74.4266 19.8828L74.4266 19.8802ZM75.9446 22.6276L79.7829 22.7173C79.8531 22.765 80.0843 22.9109 80.2264 23.0053L79.9212 22.9797C79.6163 22.9531 79.3112 23.0305 79.0558 23.1992C78.8004 23.368 78.6096 23.6182 78.5145 23.9092L78.3477 24.4204L77.3851 23.9297C77.1945 23.8323 76.9835 23.7814 76.7695 23.7812H75.9062C76.0006 23.5594 76.0342 23.3165 76.0035 23.0774L75.9446 22.6276Z" fill="black"/>
</svg>
