<svg width="237" height="165" viewBox="0 0 237 165" fill="none" xmlns="http://www.w3.org/2000/svg">
<path d="M28.0205 69.6183C28.2965 69.6085 28.5724 69.6085 28.8581 69.6381C30.5135 69.6775 32.0408 70.5544 32.908 71.9635C33.3711 72.9292 34.524 73.3332 35.4896 72.8799C36.4552 72.4168 36.8691 71.2639 36.4158 70.2984C35.1053 67.835 32.6517 66.1697 29.8729 65.8642V61.1247C29.8729 60.0605 29.0058 59.1934 27.9416 59.1934C26.8675 59.1934 26.0004 60.0605 26.0004 61.1247V66.0416C22.9557 66.6032 20.6302 69.0764 20.246 72.1411C19.9603 75.9052 23.2415 79.2357 27.656 79.7283C27.7545 79.748 27.8629 79.748 27.9811 79.7579H27.991L28.0107 79.7678C29.1242 79.6101 30.2573 79.9747 31.0751 80.7433C31.9028 81.5217 32.3265 82.6253 32.2477 83.7486C32.159 84.8719 31.5678 85.8967 30.6415 86.5373C29.7153 87.1778 28.5427 87.365 27.4588 87.0398C25.7542 86.9905 24.227 86.0052 23.4583 84.4779C23.2613 84.005 22.877 83.6305 22.404 83.4433C21.9212 83.2462 21.3891 83.2561 20.9161 83.4531C20.4431 83.6601 20.0687 84.0444 19.8815 84.5173C19.6844 85.0002 19.6943 85.5323 19.9012 86.0052C21.0442 88.4785 23.3205 90.2522 26.0007 90.7448V94.5581C26.0007 95.6223 26.8678 96.4894 27.9418 96.4894C29.006 96.4894 29.8731 95.6223 29.8731 94.5581V90.6855C33.1938 90.0943 35.7262 87.3846 36.1106 84.0344C36.1894 79.7678 32.8686 76.2007 28.6119 75.9545C28.5823 75.9446 28.5527 75.9249 28.5133 75.9249L28.1586 75.8855C25.8036 75.6293 24.0004 74.0823 24.1185 72.4268C24.217 70.9488 25.9118 69.7465 28.0205 69.6183Z" fill="black"/>
<path d="M56.3514 77.8381C56.3514 77.0991 56.3218 76.3699 56.2528 75.6407C55.0605 60.5646 42.1819 49.1138 27.0772 49.7066C11.9617 50.2978 0.0104486 62.7133 0.000358491 77.8379C-0.0390561 85.6025 3.1732 93.0321 8.85873 98.3236C17.0373 106.049 29.0193 108.167 39.3461 103.704C49.6728 99.2499 56.3612 89.0813 56.3514 77.8381ZM28.1797 102.137C21.972 102.137 16.0105 99.7624 11.5171 95.4958C6.61006 90.9434 3.84107 84.5286 3.87084 77.8381C3.88069 64.782 14.2074 54.071 27.2535 53.5784C40.2899 53.0857 51.3948 62.9887 52.39 75.9954C52.4491 76.6063 52.4787 77.2172 52.4688 77.838C52.459 91.2488 41.5905 102.117 28.1797 102.137Z" fill="black"/>
<path d="M223.873 2.96875H168.465C161.499 2.97861 155.853 8.61493 155.853 15.5814V50.4529C155.862 57.4095 161.499 63.0557 168.465 63.0557H177.205V77.8362L177.195 77.8461C177.195 78.6048 177.649 79.2946 178.338 79.6099C179.028 79.9252 179.846 79.807 180.418 79.3045L198.864 63.0657H223.872V63.0558C230.839 63.0558 236.475 57.4096 236.485 50.453V15.5815C236.475 8.61501 230.839 2.97859 223.873 2.96875ZM232.613 50.4529C232.603 55.2714 228.691 59.1831 223.873 59.1831H198.135C197.662 59.1831 197.209 59.3605 196.854 59.666L181.079 73.5596V61.1242C181.079 60.6119 180.872 60.1192 180.507 59.7546C180.142 59.39 179.65 59.1831 179.137 59.1831H168.466C163.637 59.1831 159.736 55.2711 159.726 50.4528V15.5814C159.736 10.753 163.638 6.85113 168.466 6.84129H223.873C228.692 6.85115 232.603 10.7532 232.613 15.5814L232.613 50.4529Z" fill="black"/>
<path d="M210.914 18.2217H172.791C171.727 18.2217 170.86 19.0888 170.86 20.1628C170.86 21.227 171.727 22.0941 172.791 22.104H210.914C211.979 22.0942 212.846 21.227 212.846 20.1628C212.846 19.0888 211.978 18.2217 210.914 18.2217Z" fill="black"/>
<path d="M210.914 32.707H172.791C171.727 32.7169 170.86 33.584 170.86 34.6482C170.86 35.7124 171.727 36.5795 172.791 36.5894H210.914C211.979 36.5795 212.846 35.7124 212.846 34.6482C212.846 33.584 211.978 32.7169 210.914 32.707Z" fill="black"/>
<path d="M196.175 45.9502H172.793C171.728 45.9502 170.861 46.8173 170.861 47.8815C170.861 48.9555 171.728 49.8227 172.793 49.8227H196.175C197.239 49.8227 198.106 48.9555 198.106 47.8815C198.106 46.8173 197.239 45.9502 196.175 45.9502Z" fill="black"/>
<path d="M146.688 107.829L140.746 106.223C140.737 106.223 140.727 106.203 140.707 106.203L119.275 100.429V89.4712C126.419 84.9385 131.208 77.4793 132.351 69.0939H134.677C138.923 69.1038 142.756 66.5517 144.392 62.6299C146.028 58.7082 145.141 54.1852 142.146 51.1799V31.118C142.126 13.943 128.223 0.0302704 111.048 0H98.2579C89.7837 0.0295616 82.3443 5.61667 79.9401 13.7359C72.1358 13.7556 65.8197 20.0915 65.8098 27.8957V51.1799C61.7206 55.279 61.7304 61.9203 65.8296 66.0096C67.8101 67.9804 70.4806 69.0939 73.2788 69.0939H75.6043C76.7473 77.4793 81.5363 84.9385 88.6801 89.4712V100.429L67.2484 106.203C67.2386 106.203 67.2287 106.223 67.209 106.223L61.2672 107.829C52.182 110.292 44.1513 115.672 38.4264 123.141C32.7015 130.62 29.5976 139.764 29.5779 149.174V162.082C29.5779 162.594 29.7848 163.097 30.1494 163.452C30.514 163.816 31.0066 164.023 31.519 164.023H176.436C176.948 164.023 177.441 163.816 177.806 163.452C178.17 163.097 178.367 162.595 178.367 162.082V149.174C178.357 139.763 175.244 130.619 169.519 123.141C163.794 115.672 155.773 110.292 146.688 107.829ZM118.153 157.275C118.114 157.177 118.065 157.078 118.035 156.98C117.799 156.339 117.533 155.699 117.247 155.068C117.138 154.832 117.02 154.595 116.912 154.349C116.596 153.718 116.271 153.097 115.926 152.487C115.838 152.339 115.759 152.181 115.67 152.033C115.227 151.284 114.764 150.555 114.281 149.846C114.163 149.678 114.054 149.521 113.936 149.353C113.552 148.801 113.167 148.269 112.783 147.747C112.635 147.55 112.497 147.363 112.35 147.175C111.936 146.643 111.522 146.131 111.118 145.638C111.039 145.54 110.95 145.431 110.872 145.343C110.379 144.761 109.906 144.219 109.443 143.707C109.334 143.589 109.236 143.48 109.127 143.362C108.773 142.978 108.438 142.613 108.112 142.278C108.053 142.219 107.994 142.15 107.935 142.091C108.684 141.894 109.541 141.647 110.428 141.372C110.517 141.342 110.596 141.322 110.684 141.293C111.098 141.165 111.522 141.017 111.955 140.869C112.192 140.79 112.419 140.711 112.655 140.623C112.911 140.524 113.177 140.426 113.433 140.317C113.818 140.169 114.192 140.022 114.576 139.864C114.665 139.825 114.754 139.785 114.842 139.746H114.823C117.168 138.79 119.346 137.479 121.277 135.853L126.736 131.005C126.943 130.828 127.13 130.631 127.327 130.444C127.928 129.892 128.539 129.34 129.111 128.759C129.446 128.434 129.751 128.079 130.076 127.744C130.51 127.281 130.953 126.827 131.377 126.354C131.712 125.98 132.017 125.596 132.343 125.221C132.737 124.758 133.131 124.295 133.505 123.822C133.821 123.428 134.116 123.024 134.412 122.62C134.639 122.315 134.875 122.029 135.092 121.723H135.102C130.904 134.218 125.209 146.15 118.153 157.275ZM92.3075 152.043C92.2188 152.201 92.1301 152.359 92.0414 152.516C91.6965 153.117 91.3714 153.738 91.0659 154.359C90.9477 154.605 90.8393 154.842 90.721 155.088C90.4353 155.709 90.1791 156.339 89.9426 156.97C89.9032 157.069 89.8539 157.167 89.8145 157.275C82.7494 146.151 77.054 134.218 72.8563 121.733C73.1026 122.078 73.3687 122.413 73.6347 122.758C73.8909 123.103 74.1471 123.457 74.4131 123.792C74.8368 124.334 75.2803 124.857 75.7335 125.379C75.9996 125.694 76.2656 126.019 76.5415 126.335C77.0342 126.886 77.5466 127.419 78.059 127.951C78.3152 128.217 78.5615 128.493 78.8177 128.749C79.5272 129.458 80.2662 130.148 81.015 130.818C81.084 130.877 81.153 130.946 81.222 131.005L83.8727 133.36C83.9318 133.449 84.0008 133.538 84.0796 133.617L86.7303 135.952C90.12 138.593 94.0121 140.514 98.1803 141.578C98.4956 141.677 98.7912 141.756 99.0868 141.844C99.1854 141.874 99.2938 141.903 99.3923 141.933C99.6091 141.992 99.8357 142.061 100.033 142.11C99.9737 142.17 99.8948 142.258 99.8357 142.317C99.5303 142.633 99.2051 142.978 98.8799 143.342C98.7617 143.48 98.6434 143.598 98.5153 143.736C98.062 144.239 97.5891 144.781 97.0964 145.352C97.0077 145.461 96.919 145.579 96.8205 145.687C96.4263 146.17 96.0223 146.663 95.6183 147.185C95.4705 147.382 95.3129 147.579 95.1651 147.776C94.7808 148.279 94.4063 148.811 94.0319 149.343C93.9137 149.52 93.7855 149.688 93.6673 149.865C93.2042 150.565 92.741 151.294 92.3075 152.043ZM88.9278 104.44C89.0657 105.12 89.253 105.79 89.4894 106.441C89.5289 106.549 89.5683 106.648 89.6077 106.756C89.8442 107.367 90.1299 107.968 90.465 108.54C90.5241 108.648 90.593 108.756 90.662 108.855C90.997 109.417 91.3814 109.949 91.7952 110.451C91.8642 110.53 91.9331 110.609 92.012 110.688C92.4061 111.141 92.8397 111.565 93.2929 111.959C93.3718 112.028 93.4408 112.097 93.5196 112.166C94.0024 112.56 94.5148 112.924 95.0568 113.25C95.2046 113.338 95.3524 113.437 95.5002 113.516H95.4903C96.0224 113.811 96.5644 114.067 97.126 114.284C97.2738 114.343 97.4216 114.403 97.5694 114.452L97.1162 114.688V114.698C92.6821 117.073 89.0756 120.729 86.7599 125.192L84.799 129.006L83.7841 128.109C83.0155 127.429 82.2765 126.729 81.5473 126.01C81.3404 125.803 81.1433 125.586 80.9364 125.38C80.4339 124.857 79.9313 124.345 79.4584 123.803C79.2022 123.517 78.9558 123.212 78.6996 122.916C78.2956 122.443 77.8916 121.97 77.5073 121.478C77.2413 121.143 76.9851 120.788 76.719 120.443C76.3742 119.98 76.0293 119.517 75.6943 119.054C75.4282 118.679 75.172 118.285 74.9158 117.901C74.6202 117.447 74.3246 116.994 74.029 116.531C73.7728 116.117 73.5265 115.703 73.2801 115.28C73.0141 114.826 72.7677 114.373 72.5214 113.92C72.2849 113.476 72.0484 113.033 71.8218 112.58C71.5952 112.136 71.3882 111.683 71.1715 111.23C70.9547 110.757 70.7281 110.284 70.5211 109.801C70.462 109.663 70.4127 109.525 70.3536 109.377L88.8983 104.381C88.918 104.401 88.9278 104.421 88.9278 104.44ZM95.1948 92.5273C95.2834 92.5569 95.3623 92.5766 95.451 92.6061C101.008 94.3502 106.96 94.3502 112.508 92.6061C112.586 92.5864 112.665 92.5569 112.744 92.5372C113.591 92.2612 114.419 91.9558 115.237 91.6109C115.286 91.5912 115.336 91.5715 115.385 91.5518V101.918H115.395C115.385 103.347 115.05 104.756 114.409 106.027C112.843 109.269 109.551 111.338 105.945 111.348H102.004C98.4069 111.338 95.1157 109.269 93.5392 106.027C92.9085 104.756 92.5636 103.347 92.5636 101.918V101.908L92.5538 91.5419C92.603 91.5617 92.6622 91.5814 92.7114 91.6011C93.5293 91.9558 94.3572 92.2613 95.1948 92.5273ZM117.296 108.855C117.365 108.747 117.425 108.648 117.494 108.54C117.819 107.968 118.104 107.367 118.351 106.756C118.39 106.658 118.43 106.549 118.469 106.441C118.705 105.79 118.893 105.12 119.031 104.44C119.031 104.421 119.041 104.401 119.05 104.381L137.595 109.377C137.536 109.525 137.477 109.663 137.418 109.811C137.221 110.274 137.004 110.737 136.787 111.2C136.57 111.663 136.344 112.126 136.117 112.59C135.9 113.023 135.674 113.457 135.437 113.89C135.181 114.363 134.915 114.836 134.649 115.299C134.412 115.703 134.176 116.107 133.929 116.501C133.634 116.984 133.328 117.457 133.013 117.93C132.767 118.295 132.52 118.669 132.274 119.034C131.929 119.526 131.574 120.009 131.21 120.482C130.964 120.807 130.717 121.142 130.471 121.458C130.067 121.97 129.643 122.473 129.219 122.965C128.983 123.241 128.756 123.517 128.52 123.783C128.017 124.345 127.495 124.897 126.963 125.439C126.786 125.626 126.618 125.813 126.431 126C125.702 126.73 124.953 127.429 124.184 128.109L123.268 128.917L121.169 124.985C118.804 120.551 115.148 116.935 110.685 114.619L110.379 114.462C110.537 114.403 110.685 114.343 110.833 114.284C111.394 114.068 111.936 113.811 112.459 113.516C112.606 113.427 112.754 113.338 112.902 113.25C113.434 112.924 113.946 112.56 114.429 112.166C114.508 112.097 114.577 112.028 114.656 111.959H114.666C115.119 111.565 115.553 111.141 115.947 110.688C116.016 110.609 116.095 110.54 116.163 110.451C116.577 109.949 116.961 109.417 117.296 108.855ZM103.905 115.477L108.901 118.058L108.911 118.068C112.665 120.019 115.749 123.064 117.74 126.808L120.233 131.518L118.735 132.868C115.237 135.509 111.217 137.371 106.94 138.337C106.664 138.406 106.379 138.485 106.132 138.544C105.512 138.702 104.999 138.81 104.575 138.899C104.339 138.948 104.152 138.987 103.994 139.017H103.984C103.777 138.968 103.541 138.918 103.255 138.859L102.95 138.8C102.881 138.79 102.812 138.77 102.733 138.761L101.885 138.554C101.609 138.485 101.304 138.406 100.989 138.327L100.999 138.337C97.9735 137.588 95.0567 136.475 92.2978 135.036C92.2091 134.987 92.1204 134.937 92.0318 134.888C91.6376 134.661 91.2632 134.425 90.8986 134.189C90.7705 134.1 90.6325 134.011 90.5044 133.922H90.4946C90.0709 133.617 89.657 133.302 89.2629 132.957H89.253L88.179 132.011L87.7947 131.666L90.199 126.976H90.2088C92.1599 123.211 95.1949 120.127 98.9292 118.117L103.905 115.477ZM93.0958 159.777C93.2731 159.147 93.48 158.526 93.7264 157.895C93.8052 157.698 93.8841 157.491 93.9629 157.294C94.2782 156.545 94.6329 155.806 95.0172 155.087C95.0763 154.969 95.1552 154.86 95.2143 154.742C95.569 154.111 95.9336 153.491 96.3278 152.89C96.4559 152.692 96.584 152.495 96.7121 152.298C97.1456 151.648 97.589 151.008 98.0423 150.397C98.0718 150.357 98.1014 150.308 98.131 150.268C98.6138 149.628 99.0966 149.027 99.5696 148.446C99.7075 148.268 99.8553 148.101 99.9933 147.933C100.387 147.47 100.772 147.017 101.146 146.593C101.225 146.504 101.314 146.396 101.393 146.307C101.836 145.815 102.26 145.371 102.654 144.957C102.772 144.839 102.88 144.731 102.989 144.612C103.284 144.307 103.57 144.021 103.826 143.775C103.876 143.726 103.925 143.676 103.964 143.637C104.004 143.676 104.053 143.726 104.092 143.765C104.349 144.021 104.644 144.307 104.95 144.622C105.048 144.731 105.157 144.829 105.255 144.938C105.649 145.351 106.083 145.805 106.526 146.297C106.595 146.376 106.674 146.465 106.743 146.544C107.127 146.977 107.531 147.431 107.935 147.913C108.073 148.071 108.201 148.239 108.339 148.406C108.822 148.997 109.315 149.608 109.798 150.259L109.857 150.347C110.32 150.958 110.763 151.609 111.197 152.269C111.325 152.466 111.453 152.663 111.581 152.87C111.965 153.471 112.34 154.092 112.685 154.712C112.754 154.831 112.823 154.949 112.892 155.067C113.286 155.786 113.631 156.526 113.946 157.274C114.035 157.481 114.114 157.678 114.192 157.885C114.439 158.506 114.646 159.117 114.823 159.748C114.862 159.876 114.902 160.004 114.931 160.132L92.9874 160.152C93.0169 160.024 93.0564 159.905 93.0958 159.777ZM139.379 63.2702C138.138 64.5216 136.443 65.2311 134.679 65.2213H132.61V51.9189H134.679C138.344 51.9485 141.301 54.9046 141.33 58.5701C141.33 60.3339 140.631 62.0286 139.379 63.2702ZM69.6841 27.8968C69.694 22.2211 74.2956 17.6195 79.9713 17.6195H81.469H81.4592C82.3854 17.6195 83.1737 16.9691 83.3609 16.0626C84.8193 8.98763 91.037 3.90322 98.2595 3.87371H111.05C126.076 3.90327 138.255 16.0923 138.265 31.1196V48.6787C137.92 48.5703 137.566 48.4717 137.201 48.3929C136.974 48.3338 136.748 48.2451 136.511 48.2057C135.91 48.0973 135.289 48.048 134.678 48.048H131.2L129.387 46.974C127.84 46.0379 126.894 44.3627 126.894 42.5596V39.8794C126.904 37.9875 126.313 36.1349 125.219 34.5879C123.022 31.1587 119.445 28.8335 115.415 28.2323H92.4063V28.2422C88.4255 28.8827 84.9174 31.1983 82.74 34.5879C81.6462 36.1349 81.055 37.9776 81.0649 39.8794V42.5596C81.0649 44.3628 80.1189 46.0281 78.5719 46.9642L76.749 48.0481H73.2805C72.305 48.0284 71.3393 48.1762 70.4131 48.4817C70.1766 48.5506 69.9204 48.59 69.6839 48.6787L69.6841 27.8968ZM68.5707 63.2702C67.3193 62.0287 66.6196 60.3338 66.6295 58.57C66.6492 54.9045 69.6152 51.9484 73.2807 51.9188H75.3499V65.2212H73.2807C71.5169 65.2212 69.8221 64.5217 68.5707 63.2702ZM79.2226 65.2804V51.0813L80.5627 50.2832V50.293C83.2724 48.6573 84.9377 45.7209 84.9476 42.5579V39.8777C84.9279 38.7938 85.2629 37.7395 85.8837 36.8625C87.3814 34.4583 89.7759 32.7437 92.5447 32.1131L115.257 32.1033C118.085 32.6846 120.559 34.409 122.076 36.8625C122.697 37.7395 123.022 38.7939 123.012 39.8777V42.5579C123.022 45.7209 124.687 48.6574 127.397 50.293L128.727 51.0813V65.2902C128.717 74.1191 124.007 82.2878 116.361 86.7219C110.656 89.9439 103.906 90.821 97.5701 89.1656C95.4713 88.6236 93.4612 87.7959 91.5889 86.712C83.9426 82.2878 79.2326 74.119 79.2227 65.2902L79.2226 65.2804ZM33.4613 149.175C33.4712 140.622 36.2992 132.296 41.5117 125.506C46.7144 118.707 54.0159 113.81 62.2734 111.573L66.1558 110.529C69.5555 131.34 82.0793 152.426 87.0356 160.152H33.4621L33.4613 149.175ZM174.496 160.142L120.943 160.152C125.899 152.427 138.403 131.339 141.803 110.529L145.685 111.573H145.675C153.942 113.81 161.244 118.707 166.447 125.506C171.659 132.295 174.487 140.622 174.497 149.174L174.496 160.142Z" fill="black"/>
</svg>
