<svg width="165" height="165" viewBox="0 0 165 165" fill="none" xmlns="http://www.w3.org/2000/svg">
<path d="M81.4235 71.4124H90.0633C91.1028 71.4124 91.9463 70.5689 91.9463 69.5294C91.9463 68.4899 91.1028 67.6463 90.0633 67.6463H85.1504V64.5794C85.1504 63.5399 84.3069 62.6963 83.2674 62.6963C82.2279 62.6963 81.3843 63.5399 81.3843 64.5794V67.6484C76.787 67.669 73.0538 71.4145 73.0538 76.018C73.0538 80.5122 76.6158 84.1896 81.0646 84.3794C81.0955 84.3814 81.1244 84.3876 81.1554 84.3876H81.4235H83.5767C86.1136 84.3876 88.1781 86.4522 88.1781 88.989C88.1781 91.5259 86.1136 93.5925 83.5767 93.5925H74.9369C73.8974 93.5925 73.0538 94.4361 73.0538 95.4756C73.0538 96.5151 73.8974 97.3587 74.9369 97.3587H81.3822V100.426C81.3822 101.465 82.2258 102.309 83.2653 102.309C84.3048 102.309 85.1483 101.465 85.1483 100.426V97.2081C89.0135 96.4698 91.9443 93.0666 91.9443 88.989C91.9443 84.4949 88.3824 80.8174 83.9335 80.6277C83.9026 80.6256 83.8737 80.6194 83.8428 80.6194H83.5746H81.4214C78.8845 80.6194 76.82 78.5549 76.82 76.018C76.82 73.4811 78.8845 71.4124 81.4235 71.4124Z" fill="black"/>
<path d="M140.836 24.1643C125.254 8.58207 104.536 0 82.5 0C60.4642 0 39.7464 8.58207 24.1643 24.1643C8.58207 39.7464 0 60.4642 0 82.5C0 104.536 8.58207 125.254 24.1643 140.836C39.7464 156.418 60.4642 165 82.5 165C82.5062 165 82.5103 165 82.5165 165H82.5186H82.5206C104.55 164.994 125.26 156.414 140.836 140.836C156.418 125.254 165 104.536 165 82.5C165 60.4642 156.418 39.7464 140.836 24.1643ZM161.209 80.617H129.193C128.879 64.5233 124.561 48.7183 116.651 34.7882C109.787 22.7019 100.328 12.1832 89.0773 4.04456C128.807 7.34662 160.256 40.2724 161.209 80.617ZM75.9433 4.04251C64.6903 12.1811 55.2338 22.6999 48.3677 34.7882C40.458 48.7163 36.1371 64.5233 35.8256 80.617H3.79087C4.74374 40.2662 36.2031 7.33426 75.9433 4.04251ZM3.79087 84.383H35.8256C36.1391 100.477 40.458 116.282 48.3677 130.212C55.2317 142.3 64.6903 152.819 75.9433 160.958C36.2031 157.666 4.74374 124.734 3.79087 84.383ZM82.5 110.022C81.4605 110.022 80.617 110.866 80.617 111.905V159.637C55.3719 142.64 40.1961 114.854 39.5938 84.383H53.0949C54.1344 84.383 54.978 83.5395 54.978 82.5C54.978 81.4605 54.1344 80.617 53.0949 80.617H39.5938C40.1961 50.1456 55.3719 22.3616 80.617 5.36251V53.0949C80.617 54.1344 81.4605 54.978 82.5 54.978C83.5395 54.978 84.383 54.1344 84.383 53.0949V5.35011C109.64 22.3472 124.823 50.1373 125.425 80.6149H111.905C110.866 80.6149 110.022 81.4584 110.022 82.4979C110.022 83.5374 110.866 84.381 111.905 84.381H125.425C124.823 114.859 109.64 142.651 84.383 159.646V111.901C84.383 110.866 83.5395 110.022 82.5 110.022ZM89.0773 160.955C100.328 152.817 109.785 142.298 116.649 130.212C124.559 116.284 128.877 100.477 129.191 84.383H161.207C160.256 124.728 128.807 157.653 89.0773 160.955Z" fill="black"/>
<path d="M107.937 82.4993C107.937 68.4743 96.527 57.0625 82.5 57.0625C68.475 57.0625 57.0632 68.4722 57.0632 82.4993C57.0632 96.5243 68.4729 107.936 82.5 107.936C96.525 107.936 107.937 96.5243 107.937 82.4993ZM82.5 104.168C70.5519 104.168 60.8314 94.4474 60.8314 82.4993C60.8314 70.5512 70.5519 60.8307 82.5 60.8307C94.448 60.8307 104.169 70.5512 104.169 82.4993C104.169 94.4474 94.448 104.168 82.5 104.168Z" fill="black"/>
</svg>
