<svg width="281" height="70" viewBox="0 0 281 70" fill="none" xmlns="http://www.w3.org/2000/svg">
<g clip-path="url(#clip0_3284_59)">
<path d="M173.102 65.634C164.826 65.634 157.049 62.4122 151.196 56.5619C145.342 50.7116 142.123 42.9315 142.123 34.6558C142.123 26.3802 145.345 18.6029 151.196 12.7498C157.046 6.89667 164.826 3.67773 173.102 3.67773C181.377 3.67773 189.154 6.89946 195.008 12.7498C207.087 24.8292 207.087 44.4825 195.008 56.5591C189.157 62.4094 181.377 65.6312 173.102 65.6312V65.634ZM173.102 13.4209C167.429 13.4209 162.097 15.629 158.087 19.6388C154.078 23.6485 151.869 28.9809 151.869 34.6531C151.869 40.3252 154.078 45.6576 158.087 49.6673C162.097 53.6771 167.429 55.8852 173.102 55.8852C178.774 55.8852 184.106 53.6771 188.116 49.6673C192.126 45.6576 194.334 40.3252 194.334 34.6531C194.334 28.9809 192.126 23.6485 188.116 19.6388C184.106 15.629 178.774 13.4209 173.102 13.4209Z" fill="#023DE2"/>
<path d="M212.909 65.6206L212.542 55.8802C214.672 55.7995 216.783 55.3957 218.815 54.6801C224.165 52.7922 228.458 48.9356 230.906 43.8203C233.354 38.7051 233.663 32.9411 231.775 27.592C228.784 19.113 220.737 13.4158 211.751 13.4158V3.66992C224.861 3.66992 236.603 11.9818 240.967 24.3508C246.65 40.4594 238.165 58.1886 222.057 63.8719C219.097 64.9161 216.02 65.5036 212.907 65.6206H212.909Z" fill="#1C1914"/>
<path d="M251.161 65.6284L250.793 55.888C252.923 55.8073 255.034 55.4035 257.067 54.6879C262.416 52.8 266.71 48.9434 269.157 43.8281C271.605 38.7129 271.914 32.9489 270.026 27.5998C267.035 19.1208 258.988 13.4237 250.002 13.4237V3.67773C263.112 3.67773 274.855 11.9896 279.218 24.3586C281.972 32.1609 281.521 40.5702 277.948 48.0356C274.376 55.501 268.113 61.1258 260.308 63.8797C257.348 64.9239 254.271 65.5114 251.158 65.6284H251.161Z" fill="#1C1914"/>
<path d="M11.1354 4.59129C10.9294 4.25992 10.6704 3.96755 10.3613 3.71694C10.0522 3.46633 9.70138 3.27141 9.30875 3.1294C8.91613 2.99017 8.5068 2.91777 8.08077 2.91777C7.29831 2.91777 6.63559 3.06814 6.08981 3.37165C5.54404 3.67517 5.1013 4.07893 4.76158 4.5885C4.42187 5.09807 4.17404 5.67726 4.02089 6.32606C3.86496 6.97486 3.78978 7.64594 3.78978 8.33929C3.78978 9.03264 3.86774 9.64803 4.02089 10.2773C4.17683 10.9039 4.42187 11.4691 4.76158 11.9703C5.1013 12.4716 5.54404 12.8753 6.08981 13.1761C6.63559 13.4796 7.29831 13.6299 8.08077 13.6299C9.14447 13.6299 9.97426 13.3041 10.5702 12.6553C11.1688 12.0065 11.5336 11.1489 11.6673 10.088H15.031C14.9419 11.0765 14.7136 11.9703 14.346 12.7667C13.9757 13.5631 13.4911 14.2425 12.8841 14.8022C12.2799 15.3619 11.5698 15.7907 10.7595 16.0859C9.94641 16.3811 9.05536 16.5286 8.08077 16.5286C6.86949 16.5286 5.78351 16.317 4.81728 15.8966C3.85104 15.4761 3.03516 14.8969 2.37244 14.159C1.70972 13.4211 1.20015 12.5551 0.846508 11.5582C0.49287 10.5614 0.314659 9.48931 0.314659 8.33651C0.314659 7.1837 0.49287 6.06153 0.846508 5.05074C1.20015 4.03995 1.70972 3.15724 2.37244 2.40542C3.03516 1.65359 3.85104 1.06326 4.81728 0.634442C5.78351 0.205621 6.87227 -0.00878906 8.08077 -0.00878906C8.95233 -0.00878906 9.77377 0.116516 10.5479 0.367125C11.322 0.617735 12.0153 0.982511 12.6279 1.46145C13.2405 1.9404 13.7445 2.53629 14.1427 3.24356C14.5409 3.95084 14.7915 4.76393 14.8946 5.67726H11.5308C11.4723 5.27907 11.3387 4.91429 11.1326 4.58293L11.1354 4.59129Z" fill="#1C1914"/>
<path d="M17.2447 5.0566C17.5984 4.0458 18.1079 3.1631 18.7707 2.41127C19.4334 1.65945 20.2493 1.06912 21.2155 0.640301C22.1817 0.211481 23.2705 -0.00292969 24.479 -0.00292969C25.6875 -0.00292969 26.7957 0.211481 27.7536 0.640301C28.7115 1.06912 29.5246 1.65945 30.1873 2.41127C30.85 3.1631 31.3596 4.0458 31.7132 5.0566C32.0669 6.06739 32.2451 7.1645 32.2451 8.34236C32.2451 9.52023 32.0669 10.5672 31.7132 11.5641C31.3596 12.561 30.85 13.427 30.1873 14.1649C29.5246 14.9028 28.7115 15.4819 27.7536 15.9024C26.7929 16.3229 25.7014 16.5345 24.479 16.5345C23.2566 16.5345 22.1817 16.3229 21.2155 15.9024C20.2493 15.4819 19.4334 14.9028 18.7707 14.1649C18.1079 13.427 17.5984 12.561 17.2447 11.5641C16.8911 10.5672 16.7129 9.49517 16.7129 8.34236C16.7129 7.18956 16.8911 6.06739 17.2447 5.0566ZM20.4191 10.2804C20.575 10.9069 20.8201 11.4722 21.1598 11.9734C21.4995 12.4746 21.9423 12.8784 22.488 13.1791C23.0338 13.4826 23.6965 13.633 24.479 13.633C25.2614 13.633 25.9242 13.4826 26.4699 13.1791C27.0157 12.8756 27.4585 12.4746 27.7982 11.9734C28.1379 11.4722 28.3857 10.9069 28.5389 10.2804C28.6948 9.65389 28.77 9.00787 28.77 8.34236C28.77 7.67686 28.692 6.97794 28.5389 6.32914C28.3829 5.68034 28.1379 5.10115 27.7982 4.59158C27.4585 4.082 27.0157 3.67546 26.4699 3.37473C25.9242 3.07121 25.2587 2.92085 24.479 2.92085C23.6993 2.92085 23.0338 3.07121 22.488 3.37473C21.9423 3.67824 21.4995 4.082 21.1598 4.59158C20.8201 5.10115 20.5723 5.68034 20.4191 6.32914C20.2632 6.97794 20.188 7.64901 20.188 8.34236C20.188 9.03572 20.266 9.6511 20.4191 10.2804Z" fill="#1C1914"/>
<path d="M43.141 0.375977C43.8483 0.375977 44.486 0.490143 45.0568 0.718476C45.6248 0.946809 46.1121 1.26146 46.5187 1.65965C46.9252 2.05784 47.2343 2.52008 47.4487 3.04357C47.6631 3.56707 47.7689 4.13233 47.7689 4.73658C47.7689 5.66662 47.574 6.47135 47.1814 7.148C46.7916 7.82743 46.1511 8.34257 45.2656 8.69621V8.74076C45.6945 8.85771 46.0481 9.03871 46.3293 9.28375C46.6106 9.52601 46.8389 9.8156 47.0143 10.147C47.1898 10.4783 47.3206 10.8431 47.4014 11.2413C47.4821 11.6395 47.5378 12.0377 47.5685 12.4359C47.5824 12.6865 47.5991 12.9816 47.613 13.3213C47.6269 13.6611 47.652 14.0063 47.691 14.3628C47.7272 14.7164 47.7857 15.0533 47.8692 15.3708C47.9499 15.6882 48.0725 15.9583 48.234 16.1783H44.7588C44.5667 15.6771 44.4498 15.0784 44.4052 14.385C44.3607 13.6917 44.2938 13.0262 44.2047 12.3941C44.0878 11.5671 43.8344 10.9628 43.4529 10.5786C43.0686 10.1943 42.4421 10.0022 41.5705 10.0022H38.0954V16.1783H34.6203V0.375977H43.141ZM41.9019 7.5267C42.6983 7.5267 43.297 7.34849 43.6951 6.99485C44.0933 6.64121 44.2938 6.06481 44.2938 5.26843C44.2938 4.47205 44.0933 3.94298 43.6951 3.5977C43.297 3.25242 42.6983 3.07699 41.9019 3.07699H38.0954V7.5267H41.9019Z" fill="#1C1914"/>
<path d="M50.4449 5.0566C50.7985 4.0458 51.3081 3.1631 51.9708 2.41127C52.6335 1.65945 53.4494 1.06912 54.4157 0.640301C55.3819 0.211481 56.4707 -0.00292969 57.6791 -0.00292969C58.8876 -0.00292969 59.9959 0.211481 60.9538 0.640301C61.9117 1.06912 62.7248 1.65945 63.3875 2.41127C64.0502 3.1631 64.5598 4.0458 64.9134 5.0566C65.267 6.06739 65.4453 7.1645 65.4453 8.34236C65.4453 9.52023 65.267 10.5672 64.9134 11.5641C64.5598 12.561 64.0502 13.427 63.3875 14.1649C62.7248 14.9028 61.9117 15.4819 60.9538 15.9024C59.9931 16.3229 58.9016 16.5345 57.6791 16.5345C56.4567 16.5345 55.3819 16.3229 54.4157 15.9024C53.4494 15.4819 52.6335 14.9028 51.9708 14.1649C51.3081 13.427 50.7985 12.561 50.4449 11.5641C50.0913 10.5672 49.913 9.49517 49.913 8.34236C49.913 7.18956 50.0913 6.06739 50.4449 5.0566ZM53.6221 10.2804C53.778 10.9069 54.023 11.4722 54.3627 11.9734C54.7025 12.4746 55.1452 12.8784 55.691 13.1791C56.2368 13.4826 56.8995 13.633 57.6819 13.633C58.4644 13.633 59.1271 13.4826 59.6729 13.1791C60.2187 12.8756 60.6614 12.4746 61.0011 11.9734C61.3408 11.4722 61.5887 10.9069 61.7418 10.2804C61.8977 9.65389 61.9729 9.00787 61.9729 8.34236C61.9729 7.67686 61.895 6.97794 61.7418 6.32914C61.5859 5.68034 61.3408 5.10115 61.0011 4.59158C60.6614 4.082 60.2187 3.67546 59.6729 3.37473C59.1271 3.07121 58.4616 2.92085 57.6819 2.92085C56.9023 2.92085 56.2368 3.07121 55.691 3.37473C55.1452 3.67824 54.7025 4.082 54.3627 4.59158C54.023 5.10115 53.7752 5.68034 53.6221 6.32914C53.4661 6.97794 53.3909 7.64901 53.3909 8.34236C53.3909 9.03572 53.4689 9.6511 53.6221 10.2804Z" fill="#1C1914"/>
<path d="M77.959 4.59129C77.7529 4.25992 77.494 3.96755 77.1849 3.71694C76.8758 3.46633 76.525 3.27141 76.1323 3.1294C75.7397 2.99017 75.3304 2.91777 74.9044 2.91777C74.1219 2.91777 73.4592 3.06814 72.9134 3.37165C72.3676 3.67517 71.9249 4.07893 71.5852 4.5885C71.2455 5.09807 70.9976 5.67726 70.8445 6.32606C70.6885 6.97486 70.6134 7.64594 70.6134 8.33929C70.6134 9.03264 70.6913 9.64803 70.8445 10.2773C71.0004 10.9039 71.2455 11.4691 71.5852 11.9703C71.9249 12.4716 72.3676 12.8753 72.9134 13.1761C73.4592 13.4796 74.1219 13.6299 74.9044 13.6299C75.968 13.6299 76.7978 13.3041 77.3937 12.6553C77.9924 12.0065 78.3572 11.1489 78.4909 10.088H81.8546C81.7655 11.0765 81.5371 11.9703 81.1696 12.7667C80.7992 13.5631 80.3147 14.2425 79.7077 14.8022C79.1035 15.3619 78.3934 15.7907 77.5831 16.0859C76.77 16.3811 75.8789 16.5286 74.9044 16.5286C73.6931 16.5286 72.6071 16.317 71.6409 15.8966C70.6746 15.4761 69.8587 14.8969 69.196 14.159C68.5333 13.4211 68.0237 12.5551 67.6701 11.5582C67.3165 10.5614 67.1382 9.48931 67.1382 8.33651C67.1382 7.1837 67.3165 6.06153 67.6701 5.05074C68.0237 4.03995 68.5333 3.15724 69.196 2.40542C69.8587 1.65359 70.6746 1.06326 71.6409 0.634442C72.6071 0.205621 73.6959 -0.00878906 74.9044 -0.00878906C75.7759 -0.00878906 76.5974 0.116516 77.3715 0.367125C78.1456 0.617735 78.8389 0.982511 79.4515 1.46145C80.0641 1.9404 80.5681 2.53629 80.9663 3.24356C81.3645 3.95084 81.6151 4.76393 81.7181 5.67726H78.3544C78.2959 5.27907 78.1623 4.91429 77.9562 4.58293L77.959 4.59129Z" fill="#1C1914"/>
<path d="M87.6966 0.375977V16.1811H84.2215V0.375977H87.6966Z" fill="#1C1914"/>
<path d="M89.5121 3.29697V0.375977H102.46V3.29697H97.7238V16.1783H94.2486V3.29697H89.5121Z" fill="#1C1914"/>
<path d="M104.123 5.0566C104.476 4.0458 104.986 3.1631 105.649 2.41127C106.311 1.65945 107.127 1.06912 108.093 0.640301C109.06 0.211481 110.148 -0.00292969 111.357 -0.00292969C112.565 -0.00292969 113.674 0.211481 114.632 0.640301C115.589 1.06912 116.403 1.65945 117.065 2.41127C117.728 3.1631 118.238 4.0458 118.591 5.0566C118.945 6.06739 119.123 7.1645 119.123 8.34236C119.123 9.52023 118.945 10.5672 118.591 11.5641C118.238 12.561 117.728 13.427 117.065 14.1649C116.403 14.9028 115.589 15.4819 114.632 15.9024C113.671 16.3229 112.579 16.5345 111.357 16.5345C110.135 16.5345 109.06 16.3229 108.093 15.9024C107.127 15.4819 106.311 14.9028 105.649 14.1649C104.986 13.427 104.476 12.561 104.123 11.5641C103.769 10.5672 103.591 9.49517 103.591 8.34236C103.591 7.18956 103.769 6.06739 104.123 5.0566ZM107.297 10.2804C107.453 10.9069 107.698 11.4722 108.038 11.9734C108.377 12.4746 108.82 12.8784 109.366 13.1791C109.912 13.4826 110.574 13.633 111.357 13.633C112.139 13.633 112.802 13.4826 113.348 13.1791C113.894 12.8756 114.336 12.4746 114.676 11.9734C115.016 11.4722 115.264 10.9069 115.417 10.2804C115.573 9.65389 115.648 9.00787 115.648 8.34236C115.648 7.67686 115.57 6.97794 115.417 6.32914C115.261 5.68034 115.016 5.10115 114.676 4.59158C114.336 4.082 113.894 3.67546 113.348 3.37473C112.802 3.07121 112.137 2.92085 111.357 2.92085C110.577 2.92085 109.912 3.07121 109.366 3.37473C108.82 3.67824 108.377 4.082 108.038 4.59158C107.698 5.10115 107.45 5.68034 107.297 6.32914C107.141 6.97794 107.066 7.64901 107.066 8.34236C107.066 9.03572 107.144 9.6511 107.297 10.2804Z" fill="#1C1914"/>
<path d="M12.1072 26.9375V29.8585H4.47199V33.5118H11.0909V36.2128H4.47199V42.7426H0.996872V26.9375H12.1072Z" fill="#1C1914"/>
<path d="M17.5983 26.9375V42.7426H14.1232V26.9375H17.5983Z" fill="#1C1914"/>
<path d="M24.1058 26.9375L30.7024 37.5411H30.747V26.9375H34.0021V42.7426H30.527L23.9527 32.1613H23.9081V42.7426H20.6558V26.9375H24.1086H24.1058Z" fill="#1C1914"/>
<path d="M44.9343 26.9375L50.8431 42.7426H47.2343L46.0397 39.2229H40.1309L38.8918 42.7426H35.3944L41.37 26.9375H44.9343ZM45.132 36.6333L43.141 30.8331H43.0965L41.0387 36.6333H45.1347H45.132Z" fill="#1C1914"/>
<path d="M55.6687 26.9375L62.2653 37.5411H62.3099V26.9375H65.565V42.7426H62.0899L55.5156 32.1613H55.471V42.7426H52.2187V26.9375H55.6715H55.6687Z" fill="#1C1914"/>
<path d="M78.7554 31.1538C78.5494 30.8224 78.2904 30.53 77.9813 30.2794C77.6722 30.0288 77.3214 29.8339 76.9288 29.6919C76.5361 29.5527 76.1268 29.4803 75.7008 29.4803C74.9183 29.4803 74.2556 29.6306 73.7098 29.9342C73.164 30.2377 72.7213 30.6414 72.3816 31.151C72.0419 31.6606 71.794 32.2398 71.6409 32.8886C71.485 33.5374 71.4098 34.2084 71.4098 34.9018C71.4098 35.5951 71.4877 36.2105 71.6409 36.8398C71.7968 37.4664 72.0419 38.0316 72.3816 38.5328C72.7213 39.0341 73.164 39.4378 73.7098 39.7386C74.2556 40.0421 74.9183 40.1924 75.7008 40.1924C76.7645 40.1924 77.5943 39.8666 78.1902 39.2178C78.7888 38.569 79.1536 37.7114 79.2873 36.6505H82.651C82.5619 37.639 82.3336 38.5328 81.966 39.3292C81.5957 40.1256 81.1111 40.805 80.5041 41.3647C79.8999 41.9244 79.1898 42.3532 78.3795 42.6484C77.5664 42.9436 76.6754 43.0911 75.7008 43.0911C74.4895 43.0911 73.4035 42.8795 72.4373 42.4591C71.471 42.0386 70.6552 41.4594 69.9924 40.7215C69.3297 39.9836 68.8201 39.1176 68.4665 38.1207C68.1129 37.1239 67.9347 36.0518 67.9347 34.899C67.9347 33.7462 68.1129 32.624 68.4665 31.6132C68.8201 30.6024 69.3297 29.7197 69.9924 28.9679C70.6552 28.2161 71.471 27.6258 72.4373 27.1969C73.4035 26.7681 74.4923 26.5537 75.7008 26.5537C76.5723 26.5537 77.3938 26.679 78.1679 26.9296C78.942 27.1802 79.6353 27.545 80.2479 28.024C80.8605 28.5029 81.3645 29.0988 81.7627 29.8061C82.1609 30.5133 82.4115 31.3264 82.5146 32.2398H79.1508C79.0923 31.8416 78.9587 31.4768 78.7526 31.1454L78.7554 31.1538Z" fill="#1C1914"/>
<path d="M88.493 26.9375V42.7426H85.0179V26.9375H88.493Z" fill="#1C1914"/>
<path d="M99.4279 26.9375L105.337 42.7426H101.728L100.533 39.2229H94.6246L93.3854 42.7426H89.888L95.8637 26.9375H99.4279ZM99.6284 36.6333L97.6374 30.8331H97.5929L95.5351 36.6333H99.6312H99.6284Z" fill="#1C1914"/>
<path d="M110.187 26.9374V39.8187H117.889V42.7397H106.712V26.9346H110.187V26.9374Z" fill="#1C1914"/>
<path d="M3.65333 65.4085C3.84546 65.7788 4.09885 66.0768 4.41629 66.3051C4.73373 66.5334 5.10686 66.7033 5.5329 66.8147C5.95893 66.9261 6.40446 66.9817 6.86113 66.9817C7.17021 66.9817 7.50436 66.9567 7.858 66.9038C8.21163 66.8509 8.54299 66.7534 8.85486 66.6058C9.16395 66.4583 9.42291 66.255 9.62897 65.996C9.83503 65.7371 9.93805 65.4085 9.93805 65.0103C9.93805 64.5815 9.80161 64.2362 9.52873 63.9689C9.25584 63.7043 8.89663 63.4816 8.45389 63.3061C8.01115 63.1307 7.50993 62.9748 6.94745 62.8411C6.38775 62.7075 5.81971 62.5599 5.2433 62.3984C4.65298 62.2508 4.07658 62.0698 3.51688 61.8554C2.95719 61.641 2.45318 61.3653 2.01044 61.0256C1.5677 60.6859 1.20849 60.2626 0.935605 59.7531C0.66272 59.2435 0.526277 58.6281 0.526277 57.9041C0.526277 57.0938 0.698919 56.3893 1.04699 55.7906C1.39227 55.192 1.84615 54.6963 2.40863 54.2953C2.96833 53.8972 3.6032 53.602 4.31326 53.4099C5.02054 53.2177 5.7306 53.123 6.43788 53.123C7.26489 53.123 8.0557 53.2149 8.81588 53.3987C9.57606 53.5825 10.2499 53.8832 10.8402 54.2953C11.4306 54.7075 11.8984 55.2365 12.2464 55.877C12.5917 56.5202 12.7672 57.2971 12.7672 58.2132H9.40342C9.37279 57.7398 9.27533 57.35 9.10547 57.0409C8.93562 56.7318 8.71007 56.4868 8.43161 56.3114C8.15316 56.1359 7.83015 56.0078 7.46816 55.9354C7.10617 55.863 6.71076 55.8241 6.28472 55.8241C6.00349 55.8241 5.72503 55.8547 5.44379 55.9132C5.16255 55.9716 4.90916 56.0747 4.68082 56.2223C4.45249 56.3698 4.26314 56.5536 4.11556 56.7764C3.96798 56.9964 3.89558 57.2776 3.89558 57.6173C3.89558 57.9264 3.95406 58.177 4.07379 58.3691C4.19074 58.5613 4.42465 58.7395 4.76993 58.901C5.11521 59.0625 5.59694 59.2268 6.20954 59.3883C6.82214 59.5498 7.62131 59.7586 8.60982 60.0092C8.90499 60.0677 9.31432 60.1763 9.83781 60.3295C10.3613 60.4854 10.882 60.7304 11.3972 61.0702C11.9123 61.4099 12.3606 61.8637 12.7365 62.4318C13.1124 62.9998 13.3018 63.7266 13.3018 64.6121C13.3018 65.3361 13.1626 66.0072 12.8813 66.6253C12.6001 67.2463 12.1852 67.7809 11.6311 68.2292C11.0769 68.6803 10.3919 69.0312 9.57328 69.2818C8.75462 69.5324 7.80509 69.6577 6.73025 69.6577C5.85869 69.6577 5.01497 69.5491 4.19631 69.3375C3.37766 69.1231 2.65367 68.7889 2.02715 68.3295C1.40063 67.8728 0.902191 67.288 0.531846 66.5808C0.161501 65.8735 -0.0139258 65.0326 -3.04676e-06 64.058H3.36373C3.36373 64.5898 3.45841 65.0381 3.65054 65.4085H3.65333Z" fill="#1C1914"/>
<path d="M27.1828 53.4999V56.4208H18.8375V59.8069H26.495V62.5079H18.8375V66.3812H27.3582V69.3022H15.3624V53.4971H27.1828V53.4999Z" fill="#1C1914"/>
<path d="M38.2263 53.4999C38.9336 53.4999 39.5712 53.614 40.1421 53.8424C40.7101 54.0707 41.1974 54.3853 41.6039 54.7835C42.0105 55.1817 42.3196 55.644 42.534 56.1675C42.7484 56.691 42.8542 57.2562 42.8542 57.8605C42.8542 58.7905 42.6593 59.5952 42.2667 60.2719C41.8768 60.9513 41.2364 61.4665 40.3509 61.8201V61.8646C40.7797 61.9816 41.1334 62.1626 41.4146 62.4076C41.6958 62.6499 41.9242 62.9395 42.0996 63.2708C42.275 63.6022 42.4059 63.967 42.4866 64.3652C42.5674 64.7634 42.6231 65.1615 42.6537 65.5597C42.6676 65.8103 42.6843 66.1055 42.6983 66.4452C42.7122 66.7849 42.7373 67.1302 42.7762 67.4866C42.8124 67.8403 42.8709 68.1772 42.9544 68.4947C43.0352 68.8121 43.1577 69.0822 43.3192 69.3022H39.8441C39.652 68.801 39.535 68.2023 39.4905 67.5089C39.4459 66.8156 39.3791 66.1501 39.29 65.518C39.173 64.691 38.9196 64.0867 38.5382 63.7024C38.1539 63.3182 37.5274 63.126 36.6558 63.126H33.1807V69.3022H29.7056V53.4971H38.2263V53.4999ZM36.9872 60.6506C37.7835 60.6506 38.3822 60.4724 38.7804 60.1187C39.1786 59.7651 39.3791 59.1887 39.3791 58.3923C39.3791 57.5959 39.1786 57.0669 38.7804 56.7216C38.3822 56.3763 37.7835 56.2009 36.9872 56.2009H33.1807V60.6506H36.9872Z" fill="#1C1914"/>
<path d="M48.7185 69.3041L43.606 53.499H47.1703L50.6899 64.6094H50.7345L54.2987 53.499H57.8852L52.6391 69.3041H48.7213H48.7185Z" fill="#1C1914"/>
<path d="M62.7081 53.499V69.3041H59.2329V53.499H62.7081Z" fill="#1C1914"/>
<path d="M75.8985 57.7153C75.6924 57.3839 75.4335 57.0916 75.1244 56.841C74.8153 56.5904 74.4644 56.3954 74.0718 56.2534C73.6792 56.1142 73.2699 56.0418 72.8438 56.0418C72.0614 56.0418 71.3986 56.1922 70.8529 56.4957C70.3071 56.7992 69.8643 57.203 69.5246 57.7125C69.1849 58.2221 68.9371 58.8013 68.7839 59.4501C68.628 60.0989 68.5528 60.77 68.5528 61.4633C68.5528 62.1567 68.6308 62.7721 68.7839 63.4014C68.9399 64.0279 69.1849 64.5931 69.5246 65.0944C69.8643 65.5956 70.3071 65.9993 70.8529 66.3001C71.3986 66.6036 72.0614 66.754 72.8438 66.754C73.9075 66.754 74.7373 66.4282 75.3332 65.7794C75.9319 65.1306 76.2967 64.2729 76.4303 63.212H79.7941C79.7049 64.2005 79.4766 65.0944 79.1091 65.8907C78.7387 66.6871 78.2542 67.3666 77.6472 67.9263C77.0429 68.4859 76.3329 68.9148 75.5226 69.2099C74.7095 69.5051 73.8184 69.6527 72.8438 69.6527C71.6325 69.6527 70.5466 69.441 69.5803 69.0206C68.6141 68.6001 67.7982 68.0209 67.1355 67.283C66.4728 66.5451 65.9632 65.6791 65.6096 64.6823C65.2559 63.6854 65.0777 62.6133 65.0777 61.4605C65.0777 60.3077 65.2559 59.1856 65.6096 58.1748C65.9632 57.164 66.4728 56.2813 67.1355 55.5294C67.7982 54.7776 68.6141 54.1873 69.5803 53.7585C70.5466 53.3296 71.6353 53.1152 72.8438 53.1152C73.7154 53.1152 74.5368 53.2405 75.3109 53.4912C76.085 53.7418 76.7784 54.1065 77.391 54.5855C78.0036 55.0644 78.5076 55.6603 78.9058 56.3676C79.304 57.0749 79.5546 57.888 79.6576 58.8013H76.2939C76.2354 58.4031 76.1017 58.0383 75.8957 57.707L75.8985 57.7153Z" fill="#1C1914"/>
<path d="M93.9841 53.4999V56.4208H85.6388V59.8069H93.2963V62.5079H85.6388V66.3812H94.1595V69.3022H82.1637V53.4971H93.9841V53.4999Z" fill="#1C1914"/>
<path d="M99.1634 65.4085C99.3555 65.7788 99.6089 66.0768 99.9263 66.3051C100.244 66.5334 100.617 66.7033 101.043 66.8147C101.469 66.9261 101.915 66.9817 102.371 66.9817C102.68 66.9817 103.014 66.9567 103.368 66.9038C103.722 66.8509 104.053 66.7534 104.365 66.6058C104.674 66.4583 104.933 66.255 105.139 65.996C105.345 65.7371 105.448 65.4085 105.448 65.0103C105.448 64.5815 105.312 64.2362 105.039 63.9689C104.766 63.7043 104.407 63.4816 103.964 63.3061C103.521 63.1307 103.02 62.9748 102.457 62.8411C101.898 62.7075 101.33 62.5599 100.753 62.3984C100.163 62.2508 99.5866 62.0698 99.0269 61.8554C98.4672 61.641 97.9632 61.3653 97.5205 61.0256C97.0777 60.6859 96.7185 60.2626 96.4456 59.7531C96.1728 59.2435 96.0363 58.6281 96.0363 57.9041C96.0363 57.0938 96.209 56.3893 96.557 55.7906C96.9023 55.192 97.3562 54.6963 97.9187 54.2953C98.4784 53.8972 99.1132 53.602 99.8233 53.4099C100.531 53.2177 101.241 53.123 101.948 53.123C102.775 53.123 103.566 53.2149 104.326 53.3987C105.086 53.5825 105.76 53.8832 106.35 54.2953C106.941 54.7075 107.408 55.2365 107.756 55.877C108.102 56.5202 108.277 57.2971 108.277 58.2132H104.913C104.883 57.7398 104.785 57.35 104.616 57.0409C104.446 56.7318 104.22 56.4868 103.942 56.3114C103.663 56.1359 103.34 56.0078 102.978 55.9354C102.616 55.863 102.221 55.8241 101.795 55.8241C101.514 55.8241 101.235 55.8547 100.954 55.9132C100.673 55.9716 100.419 56.0747 100.191 56.2223C99.9625 56.3698 99.7732 56.5536 99.6256 56.7764C99.478 56.9964 99.4056 57.2776 99.4056 57.6173C99.4056 57.9264 99.4641 58.177 99.5838 58.3691C99.7008 58.5613 99.9347 58.7395 100.28 58.901C100.625 59.0625 101.107 59.2268 101.72 59.3883C102.332 59.5498 103.131 59.7586 104.12 60.0092C104.415 60.0677 104.824 60.1763 105.348 60.3295C105.871 60.4854 106.392 60.7304 106.907 61.0702C107.422 61.4099 107.871 61.8637 108.247 62.4318C108.622 62.9998 108.812 63.7266 108.812 64.6121C108.812 65.3361 108.673 66.0072 108.391 66.6253C108.11 67.2463 107.695 67.7809 107.141 68.2292C106.587 68.6803 105.902 69.0312 105.083 69.2818C104.265 69.5324 103.315 69.6577 102.24 69.6577C101.369 69.6577 100.525 69.5491 99.7064 69.3375C98.8877 69.1231 98.1637 68.7889 97.5372 68.3295C96.9107 67.8728 96.4122 67.288 96.0419 66.5808C95.6715 65.8735 95.4961 65.0326 95.51 64.058H98.8738C98.8738 64.5898 98.9685 65.0381 99.1606 65.4085H99.1634Z" fill="#1C1914"/>
</g>
<defs>
<clipPath id="clip0_3284_59">
<rect width="281" height="69.6583" fill="white"/>
</clipPath>
</defs>
</svg>
