<svg width="139" height="62" viewBox="0 0 139 62" fill="none" xmlns="http://www.w3.org/2000/svg">
<path d="M30.9781 61.964C22.7025 61.964 14.9252 58.7423 9.07209 52.892C3.21897 47.0416 3.05176e-05 39.2616 3.05176e-05 30.9859C3.05176e-05 22.7102 3.22175 14.933 9.07209 9.07987C14.9224 3.22675 22.7025 0.0078125 30.9781 0.0078125C39.2538 0.0078125 47.0311 3.22954 52.8842 9.07987C64.9636 21.1593 64.9636 40.8126 52.8842 52.8892C47.0339 58.7395 39.2538 61.9612 30.9781 61.9612V61.964ZM30.9781 9.75095C25.306 9.75095 19.9736 11.9591 15.9638 15.9688C11.9541 19.9786 9.74596 25.311 9.74596 30.9831C9.74596 36.6553 11.9541 41.9877 15.9638 45.9974C19.9736 50.0072 25.306 52.2153 30.9781 52.2153C36.6503 52.2153 41.9827 50.0072 45.9924 45.9974C50.0022 41.9877 52.2103 36.6553 52.2103 30.9831C52.2103 25.311 50.0022 19.9786 45.9924 15.9688C41.9827 11.9591 36.6503 9.75095 30.9781 9.75095Z" fill="#023DE2"/>
<path d="M70.786 61.9507L70.4184 52.2103C72.5486 52.1295 74.6593 51.7258 76.692 51.0102C82.0411 49.1222 86.3349 45.2656 88.7825 40.1504C91.2302 35.0352 91.5392 29.2712 89.6513 23.9221C86.6607 15.4431 78.6134 9.74592 69.6276 9.74592V0C82.7373 0 94.4797 8.31188 98.8431 20.6808C104.526 36.7895 96.0419 54.5187 79.9332 60.202C76.9733 61.2462 73.8963 61.8337 70.7832 61.9507H70.786Z" fill="#1C1914"/>
<path d="M109.037 61.9585L108.67 52.2181C110.8 52.1374 112.911 51.7336 114.943 51.018C120.293 49.13 124.586 45.2734 127.034 40.1582C129.482 35.043 129.791 29.279 127.903 23.9299C124.912 15.4509 116.865 9.75373 107.879 9.75373V0.0078125C120.989 0.0078125 132.731 8.31969 137.094 20.6887C139.848 28.491 139.397 36.9003 135.825 44.3657C132.252 51.8311 125.99 57.4558 118.185 60.2098C115.225 61.254 112.148 61.8415 109.035 61.9585H109.037Z" fill="#1C1914"/>
</svg>
