<svg width="32" height="33" viewBox="0 0 32 33" fill="none" xmlns="http://www.w3.org/2000/svg">
<path d="M11.9382 9.42343C11.9382 11.924 12.9292 14.3225 14.6989 16.0924C16.4666 17.8621 18.8651 18.8573 21.3657 18.8573C23.8663 18.8573 26.2669 17.8642 28.0347 16.0944C29.8044 14.3268 30.7975 11.9283 30.7975 9.42551C30.7955 6.92498 29.8023 4.52647 28.0326 2.75872C26.2629 0.991067 23.8644 -0.00207545 21.3615 3.25659e-06C18.8652 0.0041676 16.4708 0.999383 14.7054 2.76495C12.9377 4.53052 11.9444 6.92509 11.9382 9.42343ZM22.1611 4.53063V5.0095C23.2126 5.26559 23.9663 6.18792 24.0058 7.26852C24.0058 7.70991 23.6477 8.06803 23.2063 8.06803C22.7649 8.06803 22.4068 7.70991 22.4068 7.26852C22.4068 6.84171 21.9279 6.48986 21.3616 6.48986C20.7974 6.48986 20.3165 6.84173 20.3165 7.26852C20.3165 7.92854 20.7225 8.20751 21.7239 8.7072C22.6838 9.18608 24.0058 9.8586 24.0058 11.5846V11.5866C23.9621 12.663 23.2105 13.5813 22.1611 13.8353V14.3266C22.1611 14.768 21.803 15.1261 21.3616 15.1261C20.9202 15.1261 20.5621 14.768 20.5621 14.3266V13.8353C19.5149 13.5813 18.7633 12.6631 18.7195 11.5866C18.7195 11.1453 19.0777 10.7871 19.519 10.7871C19.9604 10.7871 20.3186 11.1453 20.3186 11.5866C20.3186 12.0031 20.7974 12.3549 21.3637 12.3549C21.928 12.3549 22.4089 12.0031 22.4089 11.5866C22.4089 10.9142 22.0029 10.6373 21.0014 10.1375C20.0416 9.64616 18.7195 8.98613 18.7195 7.27055V7.26847C18.7591 6.18792 19.5128 5.26556 20.5621 5.00945V4.53058C20.5621 4.0871 20.9202 3.73107 21.3616 3.73107C21.803 3.73107 22.1611 4.08716 22.1611 4.53063Z" fill="#FFFDFD"/>
<path d="M30.9765 19.8669C30.5205 19.6775 30.0042 19.69 29.5586 19.9023L21.724 22.9629H21.6782C21.6844 23.0462 21.6844 23.1316 21.6782 23.2149C21.6011 23.9269 21.1785 24.5536 20.5476 24.893C20.177 25.1053 19.7544 25.2157 19.3255 25.2136C19.2005 25.2136 19.0735 25.2032 18.9486 25.1907L13.6042 24.5619C13.4897 24.5515 13.3835 24.4932 13.3127 24.4037C13.2419 24.3121 13.2107 24.1955 13.2273 24.083C13.2565 23.8498 13.4626 23.6833 13.6958 23.7062L19.0631 24.335V24.3329C19.4317 24.3891 19.8085 24.3246 20.1374 24.1497C20.5185 23.9415 20.7766 23.5646 20.8329 23.1337C20.9245 21.5909 19.0402 21.1016 15.9442 20.4374C15.3154 20.3 14.6533 20.1522 14.0017 19.9919L14.0038 19.9939C12.6109 19.6421 11.1389 19.792 9.84592 20.4166L5.32372 22.6652L8.55504 28.524L8.76116 28.422C9.42326 28.0992 10.1686 27.9847 10.8973 28.0909L17.0642 28.9591C17.6242 29.0403 18.1968 28.9529 18.709 28.7072L31.1471 22.5276V22.5297C31.8113 22.2465 32.1527 21.5053 31.9341 20.8162C31.7697 20.3748 31.4179 20.0272 30.9765 19.8669Z" fill="#FFFDFD"/>
<path d="M0 23.4178L5.00313 32.4746L8.62382 30.4425L3.63316 21.3857L0 23.4178Z" fill="#FFFDFD"/>
</svg>
